<mxfile host="app.diagrams.net" modified="2022-05-27T11:20:57.800Z" agent="5.0 (Windows NT 10.0; Win64; x64) AppleWebKit/537.36 (KHTML, like Gecko) Chrome/101.0.0.0 Safari/537.36" etag="TnjI8kCO3UYtj8nIgfEc" version="18.1.3" type="github">
  <diagram id="46rWTDkAIQLZUw8R8R2R" name="Page-1">
    <mxGraphModel dx="1027" dy="1033" grid="1" gridSize="10" guides="1" tooltips="1" connect="1" arrows="1" fold="1" page="1" pageScale="1" pageWidth="827" pageHeight="1169" math="0" shadow="0">
      <root>
        <mxCell id="0" />
        <mxCell id="1" parent="0" />
        <mxCell id="EG0pCn4Ky8EkA9Nbv7cq-5" style="edgeStyle=orthogonalEdgeStyle;rounded=0;orthogonalLoop=1;jettySize=auto;html=1;entryX=0.5;entryY=0;entryDx=0;entryDy=0;" edge="1" parent="1" source="EG0pCn4Ky8EkA9Nbv7cq-4" target="EG0pCn4Ky8EkA9Nbv7cq-6">
          <mxGeometry relative="1" as="geometry">
            <mxPoint x="260" y="180" as="targetPoint" />
          </mxGeometry>
        </mxCell>
        <mxCell id="EG0pCn4Ky8EkA9Nbv7cq-4" value="void* bsearchx(const void* key, const void* base, size_t nmemb, size_t size, int(*compar)(const void*, const void*))" style="rounded=1;whiteSpace=wrap;html=1;absoluteArcSize=1;arcSize=14;strokeWidth=2;" vertex="1" parent="1">
          <mxGeometry x="100" y="80" width="320" height="50" as="geometry" />
        </mxCell>
        <mxCell id="EG0pCn4Ky8EkA9Nbv7cq-9" style="edgeStyle=orthogonalEdgeStyle;rounded=0;orthogonalLoop=1;jettySize=auto;html=1;" edge="1" parent="1" source="EG0pCn4Ky8EkA9Nbv7cq-6" target="EG0pCn4Ky8EkA9Nbv7cq-8">
          <mxGeometry relative="1" as="geometry" />
        </mxCell>
        <mxCell id="EG0pCn4Ky8EkA9Nbv7cq-6" value="" style="verticalLabelPosition=bottom;verticalAlign=top;html=1;shape=hexagon;perimeter=hexagonPerimeter2;arcSize=6;size=0.27;" vertex="1" parent="1">
          <mxGeometry x="190" y="160" width="140" height="60" as="geometry" />
        </mxCell>
        <mxCell id="EG0pCn4Ky8EkA9Nbv7cq-7" value="int index = 0,&lt;br&gt;&amp;nbsp;start = 0,&lt;br&gt;&amp;nbsp;end = nmemb - 1;" style="text;html=1;strokeColor=none;fillColor=none;align=center;verticalAlign=middle;whiteSpace=wrap;rounded=0;" vertex="1" parent="1">
          <mxGeometry x="207" y="172" width="110" height="30" as="geometry" />
        </mxCell>
        <mxCell id="EG0pCn4Ky8EkA9Nbv7cq-11" style="edgeStyle=orthogonalEdgeStyle;rounded=0;orthogonalLoop=1;jettySize=auto;html=1;entryX=0.5;entryY=0;entryDx=0;entryDy=0;" edge="1" parent="1" source="EG0pCn4Ky8EkA9Nbv7cq-8" target="EG0pCn4Ky8EkA9Nbv7cq-10">
          <mxGeometry relative="1" as="geometry" />
        </mxCell>
        <mxCell id="EG0pCn4Ky8EkA9Nbv7cq-8" value="while (start &lt;= end)" style="strokeWidth=2;html=1;shape=mxgraph.flowchart.loop_limit;whiteSpace=wrap;" vertex="1" parent="1">
          <mxGeometry x="185" y="260" width="150" height="60" as="geometry" />
        </mxCell>
        <mxCell id="EG0pCn4Ky8EkA9Nbv7cq-13" style="edgeStyle=orthogonalEdgeStyle;rounded=0;orthogonalLoop=1;jettySize=auto;html=1;entryX=0.5;entryY=0;entryDx=0;entryDy=0;entryPerimeter=0;" edge="1" parent="1" source="EG0pCn4Ky8EkA9Nbv7cq-10" target="EG0pCn4Ky8EkA9Nbv7cq-12">
          <mxGeometry relative="1" as="geometry" />
        </mxCell>
        <mxCell id="EG0pCn4Ky8EkA9Nbv7cq-10" value="index = (start + end) / 2;" style="rounded=1;whiteSpace=wrap;html=1;absoluteArcSize=1;arcSize=14;strokeWidth=2;" vertex="1" parent="1">
          <mxGeometry x="195" y="350" width="130" height="40" as="geometry" />
        </mxCell>
        <mxCell id="EG0pCn4Ky8EkA9Nbv7cq-16" value="true" style="edgeStyle=orthogonalEdgeStyle;rounded=0;orthogonalLoop=1;jettySize=auto;html=1;entryX=0;entryY=0.5;entryDx=0;entryDy=0;entryPerimeter=0;" edge="1" parent="1" source="EG0pCn4Ky8EkA9Nbv7cq-12" target="EG0pCn4Ky8EkA9Nbv7cq-14">
          <mxGeometry relative="1" as="geometry" />
        </mxCell>
        <mxCell id="EG0pCn4Ky8EkA9Nbv7cq-23" value="false" style="edgeStyle=orthogonalEdgeStyle;rounded=0;orthogonalLoop=1;jettySize=auto;html=1;entryX=0.5;entryY=0;entryDx=0;entryDy=0;entryPerimeter=0;" edge="1" parent="1" source="EG0pCn4Ky8EkA9Nbv7cq-12" target="EG0pCn4Ky8EkA9Nbv7cq-24">
          <mxGeometry relative="1" as="geometry">
            <mxPoint x="430" y="475" as="targetPoint" />
          </mxGeometry>
        </mxCell>
        <mxCell id="EG0pCn4Ky8EkA9Nbv7cq-12" value="compar((char*)base&lt;br&gt;&amp;nbsp;+ index*size,&lt;br&gt;&amp;nbsp;(char*)key) == 0" style="strokeWidth=2;html=1;shape=mxgraph.flowchart.decision;whiteSpace=wrap;" vertex="1" parent="1">
          <mxGeometry x="186.13" y="420" width="147.75" height="110" as="geometry" />
        </mxCell>
        <mxCell id="EG0pCn4Ky8EkA9Nbv7cq-18" style="edgeStyle=orthogonalEdgeStyle;rounded=0;orthogonalLoop=1;jettySize=auto;html=1;entryX=0.5;entryY=0;entryDx=0;entryDy=0;" edge="1" parent="1" source="EG0pCn4Ky8EkA9Nbv7cq-14" target="EG0pCn4Ky8EkA9Nbv7cq-17">
          <mxGeometry relative="1" as="geometry" />
        </mxCell>
        <mxCell id="EG0pCn4Ky8EkA9Nbv7cq-14" value="while (compar((char*)base + index * size, (char*)key) == 0)" style="strokeWidth=2;html=1;shape=mxgraph.flowchart.loop_limit;whiteSpace=wrap;" vertex="1" parent="1">
          <mxGeometry x="510" y="445" width="188" height="60" as="geometry" />
        </mxCell>
        <mxCell id="EG0pCn4Ky8EkA9Nbv7cq-20" style="edgeStyle=orthogonalEdgeStyle;rounded=0;orthogonalLoop=1;jettySize=auto;html=1;entryX=0.5;entryY=1;entryDx=0;entryDy=0;entryPerimeter=0;" edge="1" parent="1" source="EG0pCn4Ky8EkA9Nbv7cq-17" target="EG0pCn4Ky8EkA9Nbv7cq-19">
          <mxGeometry relative="1" as="geometry" />
        </mxCell>
        <mxCell id="EG0pCn4Ky8EkA9Nbv7cq-17" value="index -= 1;" style="rounded=1;whiteSpace=wrap;html=1;absoluteArcSize=1;arcSize=14;strokeWidth=2;" vertex="1" parent="1">
          <mxGeometry x="554" y="540" width="100" height="32" as="geometry" />
        </mxCell>
        <mxCell id="EG0pCn4Ky8EkA9Nbv7cq-22" style="edgeStyle=orthogonalEdgeStyle;rounded=0;orthogonalLoop=1;jettySize=auto;html=1;" edge="1" parent="1" source="EG0pCn4Ky8EkA9Nbv7cq-19" target="EG0pCn4Ky8EkA9Nbv7cq-21">
          <mxGeometry relative="1" as="geometry" />
        </mxCell>
        <mxCell id="EG0pCn4Ky8EkA9Nbv7cq-19" value="" style="strokeWidth=2;html=1;shape=mxgraph.flowchart.loop_limit;whiteSpace=wrap;rotation=-180;" vertex="1" parent="1">
          <mxGeometry x="554" y="601" width="100" height="60" as="geometry" />
        </mxCell>
        <mxCell id="EG0pCn4Ky8EkA9Nbv7cq-21" value="return (char*)base + (index+1) * size;" style="rounded=1;whiteSpace=wrap;html=1;absoluteArcSize=1;arcSize=14;strokeWidth=2;" vertex="1" parent="1">
          <mxGeometry x="554" y="692" width="100" height="50" as="geometry" />
        </mxCell>
        <mxCell id="EG0pCn4Ky8EkA9Nbv7cq-25" value="true" style="edgeStyle=orthogonalEdgeStyle;rounded=0;orthogonalLoop=1;jettySize=auto;html=1;" edge="1" parent="1" source="EG0pCn4Ky8EkA9Nbv7cq-24" target="EG0pCn4Ky8EkA9Nbv7cq-26">
          <mxGeometry relative="1" as="geometry">
            <mxPoint x="258.8749999999998" y="770" as="targetPoint" />
          </mxGeometry>
        </mxCell>
        <mxCell id="EG0pCn4Ky8EkA9Nbv7cq-27" value="false" style="edgeStyle=orthogonalEdgeStyle;rounded=0;orthogonalLoop=1;jettySize=auto;html=1;" edge="1" parent="1" source="EG0pCn4Ky8EkA9Nbv7cq-24" target="EG0pCn4Ky8EkA9Nbv7cq-28">
          <mxGeometry relative="1" as="geometry">
            <mxPoint x="259" y="800" as="targetPoint" />
          </mxGeometry>
        </mxCell>
        <mxCell id="EG0pCn4Ky8EkA9Nbv7cq-24" value="(compar((char*)base + index * size, (char*)key) == -1)" style="strokeWidth=2;html=1;shape=mxgraph.flowchart.decision;whiteSpace=wrap;" vertex="1" parent="1">
          <mxGeometry x="185" y="610" width="147.75" height="110" as="geometry" />
        </mxCell>
        <mxCell id="EG0pCn4Ky8EkA9Nbv7cq-32" style="edgeStyle=orthogonalEdgeStyle;rounded=0;orthogonalLoop=1;jettySize=auto;html=1;entryX=0;entryY=0.5;entryDx=0;entryDy=0;entryPerimeter=0;" edge="1" parent="1" source="EG0pCn4Ky8EkA9Nbv7cq-26" target="EG0pCn4Ky8EkA9Nbv7cq-31">
          <mxGeometry relative="1" as="geometry">
            <Array as="points">
              <mxPoint x="440" y="900" />
            </Array>
          </mxGeometry>
        </mxCell>
        <mxCell id="EG0pCn4Ky8EkA9Nbv7cq-26" value="start = index + 1;" style="rounded=1;whiteSpace=wrap;html=1;absoluteArcSize=1;arcSize=14;strokeWidth=2;" vertex="1" parent="1">
          <mxGeometry x="380" y="647" width="130" height="36" as="geometry" />
        </mxCell>
        <mxCell id="EG0pCn4Ky8EkA9Nbv7cq-30" style="edgeStyle=orthogonalEdgeStyle;rounded=0;orthogonalLoop=1;jettySize=auto;html=1;" edge="1" parent="1" source="EG0pCn4Ky8EkA9Nbv7cq-28" target="EG0pCn4Ky8EkA9Nbv7cq-31">
          <mxGeometry relative="1" as="geometry">
            <mxPoint x="258.8799999999999" y="900" as="targetPoint" />
          </mxGeometry>
        </mxCell>
        <mxCell id="EG0pCn4Ky8EkA9Nbv7cq-28" value="end = index - 1;" style="rounded=1;whiteSpace=wrap;html=1;absoluteArcSize=1;arcSize=14;strokeWidth=2;" vertex="1" parent="1">
          <mxGeometry x="208.88" y="779" width="100" height="35" as="geometry" />
        </mxCell>
        <mxCell id="EG0pCn4Ky8EkA9Nbv7cq-31" value="" style="strokeWidth=2;html=1;shape=mxgraph.flowchart.loop_limit;whiteSpace=wrap;rotation=-180;" vertex="1" parent="1">
          <mxGeometry x="208.87999999999988" y="870" width="100" height="60" as="geometry" />
        </mxCell>
      </root>
    </mxGraphModel>
  </diagram>
</mxfile>
